<svg id="visual" viewBox="0 0 900 400" width="900" height="400" xmlns="http://www.w3.org/2000/svg" xmlns:xlink="http://www.w3.org/1999/xlink" version="1.1"><rect x="0" y="0" width="900" height="400" fill="#F1EFEC"></rect><path d="M0 261L21.5 262.3C43 263.7 86 266.3 128.8 270.3C171.7 274.3 214.3 279.7 257.2 274.7C300 269.7 343 254.3 385.8 250C428.7 245.7 471.3 252.3 514.2 253.5C557 254.7 600 250.3 642.8 248.5C685.7 246.7 728.3 247.3 771.2 251.8C814 256.3 857 264.7 878.5 268.8L900 273L900 401L878.5 401C857 401 814 401 771.2 401C728.3 401 685.7 401 642.8 401C600 401 557 401 514.2 401C471.3 401 428.7 401 385.8 401C343 401 300 401 257.2 401C214.3 401 171.7 401 128.8 401C86 401 43 401 21.5 401L0 401Z" fill="#d4c9be"></path><path d="M0 310L21.5 308.7C43 307.3 86 304.7 128.8 299C171.7 293.3 214.3 284.7 257.2 279.5C300 274.3 343 272.7 385.8 279.3C428.7 286 471.3 301 514.2 306C557 311 600 306 642.8 302.2C685.7 298.3 728.3 295.7 771.2 290.8C814 286 857 279 878.5 275.5L900 272L900 401L878.5 401C857 401 814 401 771.2 401C728.3 401 685.7 401 642.8 401C600 401 557 401 514.2 401C471.3 401 428.7 401 385.8 401C343 401 300 401 257.2 401C214.3 401 171.7 401 128.8 401C86 401 43 401 21.5 401L0 401Z" fill="#cabeb3"></path><path d="M0 315L21.5 311.5C43 308 86 301 128.8 300C171.7 299 214.3 304 257.2 310.3C300 316.7 343 324.3 385.8 326.3C428.7 328.3 471.3 324.7 514.2 325.5C557 326.3 600 331.7 642.8 329.5C685.7 327.3 728.3 317.7 771.2 313.7C814 309.7 857 311.3 878.5 312.2L900 313L900 401L878.5 401C857 401 814 401 771.2 401C728.3 401 685.7 401 642.8 401C600 401 557 401 514.2 401C471.3 401 428.7 401 385.8 401C343 401 300 401 257.2 401C214.3 401 171.7 401 128.8 401C86 401 43 401 21.5 401L0 401Z" fill="#c0b4a8"></path><path d="M0 348L21.5 349C43 350 86 352 128.8 348C171.7 344 214.3 334 257.2 328.7C300 323.3 343 322.7 385.8 323.3C428.7 324 471.3 326 514.2 330.5C557 335 600 342 642.8 342.7C685.7 343.3 728.3 337.7 771.2 337.7C814 337.7 857 343.3 878.5 346.2L900 349L900 401L878.5 401C857 401 814 401 771.2 401C728.3 401 685.7 401 642.8 401C600 401 557 401 514.2 401C471.3 401 428.7 401 385.8 401C343 401 300 401 257.2 401C214.3 401 171.7 401 128.8 401C86 401 43 401 21.5 401L0 401Z" fill="#b6a99d"></path><path d="M0 378L21.5 374C43 370 86 362 128.8 358.8C171.7 355.7 214.3 357.3 257.2 357.3C300 357.3 343 355.7 385.8 355.8C428.7 356 471.3 358 514.2 357.3C557 356.7 600 353.3 642.8 352.3C685.7 351.3 728.3 352.7 771.2 357.5C814 362.3 857 370.7 878.5 374.8L900 379L900 401L878.5 401C857 401 814 401 771.2 401C728.3 401 685.7 401 642.8 401C600 401 557 401 514.2 401C471.3 401 428.7 401 385.8 401C343 401 300 401 257.2 401C214.3 401 171.7 401 128.8 401C86 401 43 401 21.5 401L0 401Z" fill="#ac9f92"></path></svg>