<svg id="visual" viewBox="0 0 900 400" width="900" height="400" xmlns="http://www.w3.org/2000/svg" xmlns:xlink="http://www.w3.org/1999/xlink" version="1.1"><rect x="0" y="0" width="900" height="400" fill="#123458"></rect><path d="M0 294L18.8 292.2C37.7 290.3 75.3 286.7 112.8 284.3C150.3 282 187.7 281 225.2 285.5C262.7 290 300.3 300 337.8 303C375.3 306 412.7 302 450.2 297.2C487.7 292.3 525.3 286.7 562.8 287.8C600.3 289 637.7 297 675.2 300.5C712.7 304 750.3 303 787.8 304C825.3 305 862.7 308 881.3 309.5L900 311L900 401L881.3 401C862.7 401 825.3 401 787.8 401C750.3 401 712.7 401 675.2 401C637.7 401 600.3 401 562.8 401C525.3 401 487.7 401 450.2 401C412.7 401 375.3 401 337.8 401C300.3 401 262.7 401 225.2 401C187.7 401 150.3 401 112.8 401C75.3 401 37.7 401 18.8 401L0 401Z" fill="#030303" stroke-linecap="round" stroke-linejoin="miter"></path></svg>